<svg fill-rule="evenodd" stroke-linejoin="round" stroke-miterlimit="2" viewBox="0 0 90 90" xmlns="http://www.w3.org/2000/svg"><path d="m913.466-9.862h574.841v636.909h-574.841z" fill="#d6ebf5" transform="matrix(.156565 0 0 .141307 -143.017 1.39358)"/><g fill="#3b4f59" fill-rule="nonzero"><path d="m0-4.14c.02-.815-.118-1.654-.25-2.451-.24-.81-.451-1.582-.865-2.299-.323-.723-.899-1.33-1.352-1.878-.28-.248-.561-.471-.829-.675-.134-.1-.265-.197-.392-.292-.15-.089-.315-.169-.467-.246-.307-.155-.602-.281-.873-.387-.13-.049-.275-.11-.375-.137-.08-.013-.156-.025-.229-.037-.583-.08-.917-.126-.917-.126l-.014-.002c-.839-.114-1.694.311-2.089 1.113-.494 1.003-.081 2.217.923 2.711 0 0 .301.148.829.408.067.031.137.063.21.097.048.035.043.07.067.103.034.068.068.129.112.175l.073.069.098.156c.067.102.138.201.226.29.098.278.274.478.346.838.14.292.166.713.245 1.104.017.439.079.876.018 1.372-.001.474-.113.992-.18 1.495-.144.506-.234 1.018-.42 1.515-.135.509-.373.975-.554 1.452-.171.482-.463.886-.64 1.331-.228.413-.484.781-.677 1.16-.233.346-.467.651-.65.951-.18.305-.399.509-.543.721-.311.4-.48.656-.48.656l-.187.283c-.377.574-.44 1.329-.1 1.981.5.96 1.683 1.333 2.642.833 0 0 .337-.175.91-.53.28-.184.656-.377 1.003-.69.366-.295.772-.643 1.2-1.041.399-.422.819-.898 1.244-1.42.384-.548.808-1.124 1.15-1.778.361-.645.687-1.337.939-2.081.307-.719.458-1.519.637-2.301.098-.812.264-1.606.211-2.443" transform="matrix(-.214661 0 0 .214661 16.9021 49.7438)"/><path d="m0-8.653c-.19-.3-.417-.674-.702-1.086-.144-.206-.296-.426-.457-.658-.19-.211-.389-.433-.597-.664-.417-.469-.894-.954-1.412-1.467-.569-.463-1.196-.928-1.848-1.419-.67-.463-1.482-.791-2.293-1.084-.84-.241-1.735-.391-2.598-.559-.898-.062-1.771-.217-2.65-.164-.434.016-.865.032-1.291.047-.423.039-.837.113-1.243.17-.815.086-1.568.356-2.281.536-.694.262-1.353.472-1.922.765-.583.253-1.086.55-1.527.812-.439.271-.808.52-1.109.742-.294.218-.535.405-.716.558-.186.15-.215.193-.227.199-.756.554-.92 1.615-.367 2.371s1.615.92 2.371.367c-.009.009.104-.066.209-.103.128-.053.317-.131.557-.23.52-.198 1.289-.463 2.23-.641.391-.103.83-.141 1.275-.197.864.522 1.393 1.592 1.256 2.749-.159 1.333-1.146 2.328-2.308 2.425v.001s-.692.281-1.444.713c-.893.512-1.31 1.577-1.05 2.573.691 2.654 2.564 4.774 5.021 5.502-.322.029-.635.06-.921.089-.649.071-1.134.147-1.539.213-.399.055-.63.116-.63.116-.268.072-.513.247-.663.507-.301.52-.123 1.185.397 1.486 0 0 .207.12.577.277.363.16.979.358 1.656.511.69.155 1.505.275 2.382.31.878.04 1.814-.027 2.752-.096.936-.114 1.875-.236 2.744-.468.872-.208 1.675-.485 2.353-.773.676-.29 1.222-.598 1.592-.836.362-.253.569-.398.569-.398.435-.304.657-.86.511-1.402-.187-.692-.899-1.103-1.592-.916l-.154.041s-.19.051-.523.141c-.156.056-.371.094-.602.152-.226.069-.501.118-.792.179-.583.13-1.283.241-2.04.352-.465.061-.956.119-1.454.171 2.384-1.098 4.205-3.571 4.57-6.64.172-1.451-.005-2.854-.452-4.112.432.22.844.445 1.251.626.458.205.879.414 1.237.638.363.212.7.381.975.528.559.285.907.434.907.434l.222.094c.476.201 1.034.199 1.532-.052.903-.454 1.266-1.555.812-2.457 0 0-.183-.363-.554-.973" transform="matrix(-.214661 0 0 .214661 65.4004 43.8642)"/><path d="m0-.737c-.186-.27-.44-.687-.82-1.166-.369-.492-.837-1.07-1.408-1.707-.581-.623-1.245-1.325-2.032-2.024-.795-.687-1.665-1.433-2.662-2.12-.993-.692-2.074-1.385-3.253-2.006-1.178-.619-2.443-1.182-3.77-1.666-1.339-.486-2.687-.838-4.223-1.139-.401-.089-.675-.114-1.006-.169l-.717-.108-.215-.03-.134-.011c-.718-.068-1.436-.109-2.152-.128-1.432-.031-2.855.047-4.215.276-2.729.412-5.184 1.342-7.103 2.413-1.931 1.066-3.34 2.256-4.243 3.178-.459.455-.787.855-1.016 1.139-.116.15-.205.265-.265.342-.07.093-.107.141-.107.141l-.121.162c-.644.862-.518 2.087.311 2.798.864.741 2.166.642 2.907-.223.007-.008.027-.021.054-.033.049-.035.122-.086.218-.152.202-.141.525-.347.94-.607.84-.511 2.094-1.194 3.67-1.785 1.577-.59 3.471-1.083 5.553-1.284.369-.03.748-.048 1.127-.066.651 1.005.922 2.284.631 3.582-.387 1.727-1.655 3-3.178 3.444l.004.079s-1.53.281-3.003 1.076c-1.017.549-1.362 1.848-.739 2.822 1.146 1.79 2.769 3.154 4.683 3.861-.334-.037-.676-.067-.998-.119-1.153-.164-2.215-.384-3.134-.585-.44-.106-.844-.203-1.203-.289-.354-.054-.718-.201-1.004-.271-.577-.17-.918-.241-.918-.241-.486-.1-1.012.069-1.343.483-.471.588-.376 1.446.212 1.917 0 0 .272.218.769.554.254.175.527.37.955.588.41.202.883.465 1.398.678.517.185 1.067.441 1.677.605.61.16 1.249.375 1.933.468.339.059.685.119 1.034.179.353.033.71.067 1.07.1.719.076 1.453.067 2.184.086 1.464-.034 2.922-.177 4.265-.444.668-.159 1.318-.273 1.917-.476.419-.12.81-.255 1.187-.392.769-.245 1.477-.506 2.062-.781.613-.255 1.092-.54 1.429-.728.336-.194.522-.314.522-.314.398-.258.646-.722.604-1.227-.042-.506-.371-.907-.806-1.096-.353-.254-.821-.334-1.259-.171l-.128.047s-.154.058-.429.159c-.267.042-.564.087-.906.14-.594.1-1.282.201-2.011.324-.638.088-1.306.192-1.978.278 3.083-1.648 5.385-5.059 5.782-9.191.107-1.109.062-2.161-.108-3.147.245.101.496.194.734.301 1.004.429 1.958.902 2.838 1.399.882.495 1.705.993 2.447 1.486.361.258.711.501 1.05.729.326.243.636.474.927.692.559.458 1.071.841 1.455 1.193.8.677 1.233 1.093 1.233 1.093l.054.053c.661.636 1.698.751 2.493.222.919-.612 1.168-1.853.557-2.772 0 0-.097-.146-.279-.419" transform="matrix(-.214661 0 0 .214661 48.8132 42.7525)"/><path d="m0 154.197c-.054 1.02-.136 2.128-.252 3.296-.128 1.167-.306 2.397-.516 3.665-.248 1.263-.481 2.574-.836 3.886-.177.656-.334 1.322-.531 1.982-.21.656-.42 1.316-.63 1.975-.204.661-.474 1.303-.714 1.95-.237.649-.499 1.286-.789 1.907-.531 1.259-1.166 2.451-1.772 3.602-.654 1.128-1.293 2.211-1.973 3.19-.651.997-1.36 1.873-1.994 2.689-.661.798-1.26 1.522-1.851 2.129-.573.614-1.089 1.15-1.523 1.548-.864.812-1.394 1.248-1.394 1.248-.341.281-.845.233-1.126-.108-.198-.24-.232-.562-.117-.829 0 0 .274-.629.817-1.682.26-.519.576-1.149.938-1.871.364-.709.746-1.538 1.207-2.397.404-.896.897-1.828 1.348-2.844.488-.997.943-2.073 1.44-3.166.461-1.113.957-2.248 1.405-3.428.479-1.164.893-2.38 1.339-3.583.413-1.216.84-2.429 1.209-3.647.415-1.202.722-2.422 1.1-3.582.667-2.366 1.29-4.575 1.824-6.469.236-.961.503-1.837.726-2.618.221-.784.413-1.467.572-2.03.33-1.128.557-1.772.557-1.772l.006-.019c.134-.379.549-.578.929-.445.274.097.453.341.482.612 0 0 .07.681.126 1.873.018.595.076 1.322.06 2.15-.013.829-.012 1.768-.067 2.788m-34.16 27.789c-5.674 12.9-16.821 26.538-25.709 32.913-.453.324-1.054-.13-.87-.656.433-1.233 1.006-3.021 1.435-4.919.225-.997.349-1.896.418-2.581.05-.503-.532-.811-.925-.492-3.426 2.784-15.103 11.837-27.649 16.604-.596.227-1.06-.554-.575-.968 4.349-3.714 13.863-12.139 22.074-21.487 4.444-5.058 8.743-9.674 12.485-15.569.31-.488 1.072-.25 1.047.328-.092 2.086-.327 4.641-.808 7.006-.107.527.504.895.914.547 2.092-1.776 6.495-5.901 11.304-12.745 5.161-7.344 9.583-13.695 12.536-19.029.204-.368.761-.174.691.24-.61 3.623-2.284 11.523-6.368 20.808m-67.258 30.216s-.108.29-.332.771c-.094.238-.301.551-.509.892-.21.366-.472.693-.756 1.082-.276.394-.631.754-.985 1.168-.363.397-.772.791-1.202 1.186-.856.797-1.842 1.555-2.88 2.231-.523.332-1.034.681-1.57.974-.535.295-1.062.581-1.587.836-1.05.502-2.075.895-2.975 1.17-.907.269-1.69.418-2.244.486-.566.05-.881.064-.881.064-.338.014-.624-.248-.639-.586-.01-.24.119-.453.314-.562l.043-.024s.252-.14.694-.385c.221-.111.479-.293.781-.456.304-.162.63-.405.998-.614.721-.471 1.565-1.007 2.439-1.637.894-.592 1.807-1.29 2.735-1.957.904-.694 1.809-1.388 2.657-2.039.839-.657 1.618-1.27 2.276-1.803.323-.265.62-.507.883-.721.249-.222.479-.37.678-.564.391-.359.635-.55.635-.55.397-.314.973-.247 1.287.15.204.259.245.599.14.888m-50.067-31.694c-12.503-3.749-17.019-15.986-22.144-19.095-.011-.007-.022-.014-.034-.021-1.421-.86-.452-3.06 1.133-2.56.081.025.162.052.245.079 3.541 1.192 8.598 5.117 14.767 7.533 6.275 2.457 18.869 2.374 24.433 1.047 6.358-1.517 13.465-3.613 19.841-3.708 2.836-.043 4.962.705 6.319 1.403.757.389.679 1.492-.129 1.761-1.484.493-3.572 1.222-5.231 1.935-6.265 2.692-9.109 4.376-15.96 8.646-6.812 4.246-16.239 5.079-23.24 2.98m-28.544-97.563h-13.367c-6.246 0-11.401-3.979-11.79-10.65-.302-5.193-1-20.782-1-20.782 0-2.875 2.331-5.206 5.206-5.206l38.216-.834c4.836 0 8.381 4.549 7.201 9.239 0 0-4.838 11.662-6.444 14.98-5.121 10.583-8.53 13.253-18.022 13.253m51.09-39.086c12.961-.096 36.836-1.234 50.543-1.221 6.615.006 11.82 2.837 11.818 10.52-.002 4.276-1.246 12.832-1.518 17.099-.55 8.664-6.369 13.688-13.976 13.688h-28.798c-12.436 0-16.144-2.88-20.817-17.347-1.811-5.606-3.353-10.702-4.107-14.359-.872-4.232 2.535-8.348 6.855-8.38m205.384 38.521c-1.202-3.085-3.066-5.832-5.325-7.785-.269-.243-.561-.489-.884-.734l-.465-.359-.379-.261-.368-.245c-.26-.183-.368-.228-.559-.346-.083-.051-.166-.093-.249-.14.22-.804.55-2.01.984-3.601.415-1.559.971-3.472 1.54-5.742.462-2.298.994-4.938 1.589-7.896.339-1.472.526-3.053.741-4.708.217-1.655.445-3.387.682-5.192.294-1.801.319-3.703.469-5.665.1-1.965.277-3.999.32-6.105.111-8.429-.445-17.973-2.337-28.205-1.894-10.22-5.192-21.106-10.346-31.905-.654-1.344-1.313-2.698-1.977-4.061-.705-1.342-1.484-2.658-2.231-4.001-1.442-2.717-3.219-5.287-4.925-7.938-.842-1.326-1.893-2.607-2.842-3.921-.975-1.307-1.954-2.661-2.964-3.784-1.037-1.215-2.08-2.437-3.127-3.664-1.129-1.169-2.264-2.344-3.403-3.524-4.663-4.607-9.77-8.882-15.217-12.808-5.443-3.941-11.318-7.379-17.398-10.503-12.191-6.223-25.562-10.489-39.224-12.877-3.445-.468-6.825-1.092-10.359-1.327-1.74-.143-3.523-.344-5.224-.434l-5.029-.177-1.255-.044-.628-.022-.43-.012-.321.004-2.571.033c-1.765.024-3.528.048-5.288.071-.961.053-1.918.105-2.879.158-2.397.195-4.795.242-7.173.553-1.692.188-3.38.376-5.064.564-1.682.204-3.349.523-5.018.779-3.346.466-6.618 1.292-9.892 1.969-6.488 1.647-12.841 3.571-18.87 6.074-6.013 2.517-11.813 5.311-17.156 8.626-5.341 3.303-10.378 6.849-14.949 10.705-1.202.981-2.346 2.081-3.509 3.098-.565.517-1.133 1.037-1.698 1.554-.445.438-.889.876-1.331 1.311-.5.493-.999.984-1.495 1.474l-.743.732-.156.154-.089.099-.18.199-.358.397c-.955 1.057-1.901 2.106-2.839 3.146-.937 1.04-1.866 2.072-2.787 3.094-.885 1.053-1.697 2.153-2.535 3.212-1.64 2.149-3.358 4.173-4.742 6.379-5.96 8.515-10.289 17.074-13.313 24.93-3.055 7.852-4.927 14.972-6.04 20.903-1.132 5.932-1.558 10.671-1.706 13.923-.08 1.636-.102 2.859-.092 3.757.002.898.024 1.296.024 1.296l.004.074c.076 1.286 1.149 2.301 2.452 2.289 1.344-.012 2.424-1.111 2.412-2.455 0 0-.004-.443.029-1.175.024-.731.096-1.926.237-3.435.27-3.038.869-7.523 2.191-13.109 1.332-5.579 3.316-12.284 6.448-19.627 3.098-7.353 7.487-15.27 13.258-23.183 1.344-2.05 3.02-3.92 4.608-5.909.814-.98 1.598-1.999 2.454-2.972.892-.944 1.792-1.895 2.699-2.855.905-.96 1.819-1.928 2.739-2.903l.636-.669.76-.715c.507-.478 1.017-.958 1.528-1.439s1.024-.963 1.538-1.447c.419-.363.841-.728 1.26-1.091 1.151-.941 2.221-1.945 3.424-2.879 4.325-3.541 9.07-6.789 14.093-9.803 1.274-.724 2.554-1.451 3.841-2.183 1.305-.699 2.651-1.337 3.978-2.026.67-.331 1.325-.696 2.012-1.002l2.065-.918c1.39-.589 2.742-1.282 4.178-1.798 1.423-.546 2.852-1.094 4.286-1.644 1.439-.536 2.924-.967 4.392-1.46l2.212-.723 2.256-.615c1.509-.4 3.016-.831 4.54-1.212 3.083-.632 6.152-1.418 9.313-1.853 1.575-.241 3.143-.546 4.734-.738 1.593-.177 3.19-.355 4.79-.533 2.244-.298 4.524-.337 6.792-.525.909-.05 1.814-.101 2.723-.152 1.681-.022 3.366-.044 5.052-.067l2.447-.033.306-.005c-.024-.001-.026-.001-.037-.001.032.001.078.003.078.003l.157.006.627.025 1.255.05 5.028.201c1.649.097 3.205.293 4.814.432 3.18.217 6.425.835 9.644 1.283 1.605.284 3.195.644 4.793.961l2.394.49 2.364.612c1.573.418 3.154.804 4.717 1.245l4.644 1.474c1.559.453 3.059 1.073 4.578 1.629 1.51.581 3.046 1.093 4.511 1.771 1.483.637 2.963 1.273 4.44 1.908 1.445.706 2.887 1.411 4.326 2.114 5.695 2.924 11.201 6.134 16.282 9.811 5.086 3.662 9.841 7.639 14.158 11.895 4.323 4.184 8.172 9.024 11.448 13.591 1.598 2.442 3.275 4.796 4.638 7.316.707 1.242 1.446 2.457 2.117 3.7.63 1.266 1.257 2.523 1.88 3.772 4.915 10.033 8.122 20.223 9.999 29.819 1.875 9.608 2.493 18.605 2.471 26.572-.019 1.992-.174 3.918-.245 5.779-.11 1.859-.093 3.661-.346 5.372-.194 1.717-.38 3.363-.558 4.937-.175 1.574-.321 3.079-.622 4.484-.515 2.825-.975 5.346-1.375 7.54-.504 2.173-1.004 4.008-1.372 5.503-.434 1.714-.747 2.951-.939 3.71-1.454-.036-2.756.094-3.856.313-1.647.326-2.827.768-3.72 1.164-.436.187-.635.32-.834.415-.178.093-.27.141-.27.141-.883.461-1.34 1.519-.989 2.516.365 1.04 1.545 1.557 2.61 1.268l.169-.046c.178-.04.519-.159.822-.205.569-.11 1.59-.281 2.813-.318 1.228-.032 2.749.07 4.308.52.773.222 1.56.522 2.225.931.168.1.331.203.469.319.05.042.199.137.171.134l.34.282.336.278.227.224c.149.136.312.301.485.492 1.347 1.45 2.517 3.296 3.278 5.542.784 2.231 1.16 4.829 1.113 7.576-.041 2.751-.503 5.643-1.268 8.534-.757 2.892-1.844 5.804-3.171 8.59l-.526 1.122-.521.971c-.334.645-.687 1.292-1.093 1.941-.382.653-.768 1.299-1.195 1.912l-.617.933-.662.89c-1.763 2.368-3.75 4.466-5.883 6.203-2.143 1.724-4.417 3.09-6.686 4.094-2.272.999-4.535 1.625-6.639 1.974-4.231.705-7.759.075-9.779-.686-.825-.308-1.421-.616-1.824-.871 1.067-8.391 2.005-16.418 3.11-23.686 1.492-9.818-46.25 29.538-95.25 40.777-48.577 11.141-67.938-4.755-74.351-12.83 1.046-.136 2.066-.41 3.002-.816 1.004-.443 1.918-1.009 2.726-1.649.399-.324.776-.668 1.126-1.024.348-.357.684-.72.984-1.099.315-.371.579-.77.849-1.159.249-.4.513-.789.724-1.199.454-.808.805-1.645 1.123-2.481.341-.903-.052-2.01-1.123-2.416-.71-.268-1.517-.023-2.013.55l-.062.071c-1.013 1.168-2.017 2.266-3.112 3.091-.265.217-.542.404-.815.583-.273.181-.556.326-.827.477-.546.29-1.099.494-1.638.617-.272.053-.534.107-.796.136-.263.023-.521.038-.778.024-.512-.022-1.01-.124-1.498-.264-.974-.299-1.886-.904-2.585-1.628-1.193-1.227-3.157-1.384-4.524-.294l-.217.172c-1.566 1.249-3.238 2.283-4.998 2.937-1.757.661-3.588.987-5.42.927-1.83-.041-3.659-.485-5.365-1.243-1.697-.775-3.278-1.873-4.561-3.245-.643-.682-1.235-1.414-1.719-2.204-.239-.396-.48-.793-.672-1.209-.236-.467-.319-.684-.519-1.192-.683-1.88-.908-3.645-.79-5.517.242-3.716 2.104-7.705 4.278-11.655 2.194-3.962 4.696-7.947 7.103-12.017l1.804-3.079c.611-1.059 1.199-2.132 1.764-3.218 1.126-2.174 2.166-4.398 3.103-6.669 1.873-4.54 3.328-9.275 4.246-14.143.296-1.552.513-3.122.691-4.701 1.712.16 3.217 1.254 3.869 2.879l6.525 18.776c2.652 7.633 9.811 12.78 17.892 12.862l39.407.404c8.407.089 17.006-5.871 18.792-14.087.858-3.95 1.968-10.531 2.782-14.169.908-4.058 4.044-6.828 8.093-5.883 19.368 4.522 75.248 17.808 91.063 21.984 2.407.635 4.747-1.185 4.747-3.688v-.094c0-1.497-.917-2.84-2.31-3.386l-91.681-34.614c-9.261-3.629-19.164-5.336-29.106-5.017l-129.69 4.165c-5.158.166-9.183 4.52-8.945 9.675l1.474 26.94c.464 8.5 7.398 15.207 15.908 15.389l24.846.532c2.63.057 5.137-.755 7.194-2.217-1.951 3.232-3.948 6.477-5.857 9.907-1.174 2.128-2.309 4.341-3.268 6.746-.947 2.402-1.709 5.048-1.908 7.88-.215 2.808.225 5.79 1.135 8.323.211.588.555 1.468.853 2.046.301.649.658 1.264 1.023 1.872.737 1.215 1.614 2.329 2.572 3.359 1.112 1.198 2.369 2.247 3.718 3.166-7.416 6.377-14.12 5.62-18.904 2.949-3.217-1.797-5.256-5.497-6.515-8.923-.562-1.53-2.862-1.269-2.966.358-1.383 21.482-.317 63.898 20.66 91.732 17.83 23.657 41.85 32.257 73.645 30.183 25.812-1.683 69.562-14.683 92.795-34.424 30.008-25.498 32.679-45.568 35.271-59.495 1.099-5.909 2.001-11.83 2.801-17.644.029.011.054.024.083.036 3.348 1.314 8.247 2.086 13.837 1.215 2.784-.435 5.749-1.23 8.659-2.562 2.913-1.318 5.794-3.093 8.458-5.281 2.653-2.2 5.072-4.81 7.166-7.679l.785-1.08.727-1.117c.498-.74.958-1.502 1.389-2.28.449-.758.871-1.567 1.278-2.397l.614-1.23.502-1.133c1.44-3.212 2.603-6.547 3.419-9.968.808-3.417 1.25-6.911 1.195-10.36-.054-3.443-.626-6.853-1.826-9.95" transform="matrix(-.214661 0 0 .214661 30.3974 28.6405)"/><path d="m0 154.197c-.054 1.02-.136 2.128-.252 3.296-.128 1.167-.306 2.397-.516 3.665-.248 1.263-.481 2.574-.836 3.886-.177.656-.334 1.322-.531 1.982-.21.656-.42 1.316-.63 1.975-.204.661-.474 1.303-.714 1.95-.237.649-.499 1.286-.789 1.907-.531 1.259-1.166 2.451-1.772 3.602-.654 1.128-1.293 2.211-1.973 3.19-.651.997-1.36 1.873-1.994 2.689-.661.798-1.26 1.522-1.851 2.129-.573.614-1.089 1.15-1.523 1.548-.864.812-1.394 1.248-1.394 1.248-.341.281-.845.233-1.126-.108-.198-.24-.232-.562-.117-.829 0 0 .274-.629.817-1.682.26-.519.576-1.149.938-1.871.364-.709.746-1.538 1.207-2.397.404-.896.897-1.828 1.348-2.844.488-.997.943-2.073 1.44-3.166.461-1.113.957-2.248 1.405-3.428.479-1.164.893-2.38 1.339-3.583.413-1.216.84-2.429 1.209-3.647.415-1.202.722-2.422 1.1-3.582.667-2.366 1.29-4.575 1.824-6.469.236-.961.503-1.837.726-2.618.221-.784.413-1.467.572-2.03.33-1.128.557-1.772.557-1.772l.006-.019c.134-.379.549-.578.929-.445.274.097.453.341.482.612 0 0 .07.681.126 1.873.018.595.076 1.322.06 2.15-.013.829-.012 1.768-.067 2.788m-34.16 27.789c-5.674 12.9-16.821 26.538-25.709 32.913-.453.324-1.054-.13-.87-.656.433-1.233 1.006-3.021 1.435-4.919.225-.997.349-1.896.418-2.581.05-.503-.532-.811-.925-.492-3.426 2.784-15.103 11.837-27.649 16.604-.596.227-1.06-.554-.575-.968 4.349-3.714 13.863-12.139 22.074-21.487 4.444-5.058 8.743-9.674 12.485-15.569.31-.488 1.072-.25 1.047.328-.092 2.086-.327 4.641-.808 7.006-.107.527.504.895.914.547 2.092-1.776 6.495-5.901 11.304-12.745 5.161-7.344 9.583-13.695 12.536-19.029.204-.368.761-.174.691.24-.61 3.623-2.284 11.523-6.368 20.808m-67.258 30.216s-.108.29-.332.771c-.094.238-.301.551-.509.892-.21.366-.472.693-.756 1.082-.276.394-.631.754-.985 1.168-.363.397-.772.791-1.202 1.186-.856.797-1.842 1.555-2.88 2.231-.523.332-1.034.681-1.57.974-.535.295-1.062.581-1.587.836-1.05.502-2.075.895-2.975 1.17-.907.269-1.69.418-2.244.486-.566.05-.881.064-.881.064-.338.014-.624-.248-.639-.586-.01-.24.119-.453.314-.562l.043-.024s.252-.14.694-.385c.221-.111.479-.293.781-.456.304-.162.63-.405.998-.614.721-.471 1.565-1.007 2.439-1.637.894-.592 1.807-1.29 2.735-1.957.904-.694 1.809-1.388 2.657-2.039.839-.657 1.618-1.27 2.276-1.803.323-.265.62-.507.883-.721.249-.222.479-.37.678-.564.391-.359.635-.55.635-.55.397-.314.973-.247 1.287.15.204.259.245.599.14.888m-50.067-31.694c-12.503-3.749-17.019-15.986-22.144-19.095-.011-.007-.022-.014-.034-.021-1.421-.86-.452-3.06 1.133-2.56.081.025.162.052.245.079 3.541 1.192 8.598 5.117 14.767 7.533 6.275 2.457 18.869 2.374 24.433 1.047 6.358-1.517 13.465-3.613 19.841-3.708 2.836-.043 4.962.705 6.319 1.403.757.389.679 1.492-.129 1.761-1.484.493-3.572 1.222-5.231 1.935-6.265 2.692-9.109 4.376-15.96 8.646-6.812 4.246-16.239 5.079-23.24 2.98m-28.544-97.563h-13.367c-6.246 0-11.401-3.979-11.79-10.65-.302-5.193-1-20.782-1-20.782 0-2.875 2.331-5.206 5.206-5.206l38.216-.834c4.836 0 8.381 4.549 7.201 9.239 0 0-4.838 11.662-6.444 14.98-5.121 10.583-8.53 13.253-18.022 13.253m51.09-39.086c12.961-.096 36.836-1.234 50.543-1.221 6.615.006 11.82 2.837 11.818 10.52-.002 4.276-1.246 12.832-1.518 17.099-.55 8.664-6.369 13.688-13.976 13.688h-28.798c-12.436 0-16.144-2.88-20.817-17.347-1.811-5.606-3.353-10.702-4.107-14.359-.872-4.232 2.535-8.348 6.855-8.38m205.384 38.521c-1.202-3.085-3.066-5.832-5.325-7.785-.269-.243-.561-.489-.884-.734l-.465-.359-.379-.261-.368-.245c-.26-.183-.368-.228-.559-.346-.083-.051-.166-.093-.249-.14.22-.804.55-2.01.984-3.601.415-1.559.971-3.472 1.54-5.742.462-2.298.994-4.938 1.589-7.896.339-1.472.526-3.053.741-4.708.217-1.655.445-3.387.682-5.192.294-1.801.319-3.703.469-5.665.1-1.965.277-3.999.32-6.105.111-8.429-.445-17.973-2.337-28.205-1.894-10.22-5.192-21.106-10.346-31.905-.654-1.344-1.313-2.698-1.977-4.061-.705-1.342-1.484-2.658-2.231-4.001-1.442-2.717-3.219-5.287-4.925-7.938-.842-1.326-1.893-2.607-2.842-3.921-.975-1.307-1.954-2.661-2.964-3.784-1.037-1.215-2.08-2.437-3.127-3.664-1.129-1.169-2.264-2.344-3.403-3.524-4.663-4.607-9.77-8.882-15.217-12.808-5.443-3.941-11.318-7.379-17.398-10.503-12.191-6.223-25.562-10.489-39.224-12.877-3.445-.468-6.825-1.092-10.359-1.327-1.74-.143-3.523-.344-5.224-.434l-5.029-.177-1.255-.044-.628-.022-.43-.012-.321.004-2.571.033c-1.765.024-3.528.048-5.288.071-.961.053-1.918.105-2.879.158-2.397.195-4.795.242-7.173.553-1.692.188-3.38.376-5.064.564-1.682.204-3.349.523-5.018.779-3.346.466-6.618 1.292-9.892 1.969-6.488 1.647-12.841 3.571-18.87 6.074-6.013 2.517-11.813 5.311-17.156 8.626-5.341 3.303-10.378 6.849-14.949 10.705-1.202.981-2.346 2.081-3.509 3.098-.565.517-1.133 1.037-1.698 1.554-.445.438-.889.876-1.331 1.311-.5.493-.999.984-1.495 1.474l-.743.732-.156.154-.089.099-.18.199-.358.397c-.955 1.057-1.901 2.106-2.839 3.146-.937 1.04-1.866 2.072-2.787 3.094-.885 1.053-1.697 2.153-2.535 3.212-1.64 2.149-3.358 4.173-4.742 6.379-5.96 8.515-10.289 17.074-13.313 24.93-3.055 7.852-4.927 14.972-6.04 20.903-1.132 5.932-1.558 10.671-1.706 13.923-.08 1.636-.102 2.859-.092 3.757.002.898.024 1.296.024 1.296l.004.074c.076 1.286 1.149 2.301 2.452 2.289 1.344-.012 2.424-1.111 2.412-2.455 0 0-.004-.443.029-1.175.024-.731.096-1.926.237-3.435.27-3.038.869-7.523 2.191-13.109 1.332-5.579 3.316-12.284 6.448-19.627 3.098-7.353 7.487-15.27 13.258-23.183 1.344-2.05 3.02-3.92 4.608-5.909.814-.98 1.598-1.999 2.454-2.972.892-.944 1.792-1.895 2.699-2.855.905-.96 1.819-1.928 2.739-2.903l.636-.669.76-.715c.507-.478 1.017-.958 1.528-1.439s1.024-.963 1.538-1.447c.419-.363.841-.728 1.26-1.091 1.151-.941 2.221-1.945 3.424-2.879 4.325-3.541 9.07-6.789 14.093-9.803 1.274-.724 2.554-1.451 3.841-2.183 1.305-.699 2.651-1.337 3.978-2.026.67-.331 1.325-.696 2.012-1.002l2.065-.918c1.39-.589 2.742-1.282 4.178-1.798 1.423-.546 2.852-1.094 4.286-1.644 1.439-.536 2.924-.967 4.392-1.46l2.212-.723 2.256-.615c1.509-.4 3.016-.831 4.54-1.212 3.083-.632 6.152-1.418 9.313-1.853 1.575-.241 3.143-.546 4.734-.738 1.593-.177 3.19-.355 4.79-.533 2.244-.298 4.524-.337 6.792-.525.909-.05 1.814-.101 2.723-.152 1.681-.022 3.366-.044 5.052-.067l2.447-.033.306-.005c-.024-.001-.026-.001-.037-.001.032.001.078.003.078.003l.157.006.627.025 1.255.05 5.028.201c1.649.097 3.205.293 4.814.432 3.18.217 6.425.835 9.644 1.283 1.605.284 3.195.644 4.793.961l2.394.49 2.364.612c1.573.418 3.154.804 4.717 1.245l4.644 1.474c1.559.453 3.059 1.073 4.578 1.629 1.51.581 3.046 1.093 4.511 1.771 1.483.637 2.963 1.273 4.44 1.908 1.445.706 2.887 1.411 4.326 2.114 5.695 2.924 11.201 6.134 16.282 9.811 5.086 3.662 9.841 7.639 14.158 11.895 4.323 4.184 8.172 9.024 11.448 13.591 1.598 2.442 3.275 4.796 4.638 7.316.707 1.242 1.446 2.457 2.117 3.7.63 1.266 1.257 2.523 1.88 3.772 4.915 10.033 8.122 20.223 9.999 29.819 1.875 9.608 2.493 18.605 2.471 26.572-.019 1.992-.174 3.918-.245 5.779-.11 1.859-.093 3.661-.346 5.372-.194 1.717-.38 3.363-.558 4.937-.175 1.574-.321 3.079-.622 4.484-.515 2.825-.975 5.346-1.375 7.54-.504 2.173-1.004 4.008-1.372 5.503-.434 1.714-.747 2.951-.939 3.71-1.454-.036-2.756.094-3.856.313-1.647.326-2.827.768-3.72 1.164-.436.187-.635.32-.834.415-.178.093-.27.141-.27.141-.883.461-1.34 1.519-.989 2.516.365 1.04 1.545 1.557 2.61 1.268l.169-.046c.178-.04.519-.159.822-.205.569-.11 1.59-.281 2.813-.318 1.228-.032 2.749.07 4.308.52.773.222 1.56.522 2.225.931.168.1.331.203.469.319.05.042.199.137.171.134l.34.282.336.278.227.224c.149.136.312.301.485.492 1.347 1.45 2.517 3.296 3.278 5.542.784 2.231 1.16 4.829 1.113 7.576-.041 2.751-.503 5.643-1.268 8.534-.757 2.892-1.844 5.804-3.171 8.59l-.526 1.122-.521.971c-.334.645-.687 1.292-1.093 1.941-.382.653-.768 1.299-1.195 1.912l-.617.933-.662.89c-1.763 2.368-3.75 4.466-5.883 6.203-2.143 1.724-4.417 3.09-6.686 4.094-2.272.999-4.535 1.625-6.639 1.974-4.231.705-7.759.075-9.779-.686-.825-.308-1.421-.616-1.824-.871 1.067-8.391 2.005-16.418 3.11-23.686 1.492-9.818-46.25 29.538-95.25 40.777-48.577 11.141-67.938-4.755-74.351-12.83 1.046-.136 2.066-.41 3.002-.816 1.004-.443 1.918-1.009 2.726-1.649.399-.324.776-.668 1.126-1.024.348-.357.684-.72.984-1.099.315-.371.579-.77.849-1.159.249-.4.513-.789.724-1.199.454-.808.805-1.645 1.123-2.481.341-.903-.052-2.01-1.123-2.416-.71-.268-1.517-.023-2.013.55l-.062.071c-1.013 1.168-2.017 2.266-3.112 3.091-.265.217-.542.404-.815.583-.273.181-.556.326-.827.477-.546.29-1.099.494-1.638.617-.272.053-.534.107-.796.136-.263.023-.521.038-.778.024-.512-.022-1.01-.124-1.498-.264-.974-.299-1.886-.904-2.585-1.628-1.193-1.227-3.157-1.384-4.524-.294l-.217.172c-1.566 1.249-3.238 2.283-4.998 2.937-1.757.661-3.588.987-5.42.927-1.83-.041-3.659-.485-5.365-1.243-1.697-.775-3.278-1.873-4.561-3.245-.643-.682-1.235-1.414-1.719-2.204-.239-.396-.48-.793-.672-1.209-.236-.467-.319-.684-.519-1.192-.683-1.88-.908-3.645-.79-5.517.242-3.716 2.104-7.705 4.278-11.655 2.194-3.962 4.696-7.947 7.103-12.017l1.804-3.079c.611-1.059 1.199-2.132 1.764-3.218 1.126-2.174 2.166-4.398 3.103-6.669 1.873-4.54 3.328-9.275 4.246-14.143.296-1.552.513-3.122.691-4.701 1.712.16 3.217 1.254 3.869 2.879l6.525 18.776c2.652 7.633 9.811 12.78 17.892 12.862l39.407.404c8.407.089 17.006-5.871 18.792-14.087.858-3.95 1.968-10.531 2.782-14.169.908-4.058 4.044-6.828 8.093-5.883 19.368 4.522 75.248 17.808 91.063 21.984 2.407.635 4.747-1.185 4.747-3.688v-.094c0-1.497-.917-2.84-2.31-3.386l-91.681-34.614c-9.261-3.629-19.164-5.336-29.106-5.017l-129.69 4.165c-5.158.166-9.183 4.52-8.945 9.675l1.474 26.94c.464 8.5 7.398 15.207 15.908 15.389l24.846.532c2.63.057 5.137-.755 7.194-2.217-1.951 3.232-3.948 6.477-5.857 9.907-1.174 2.128-2.309 4.341-3.268 6.746-.947 2.402-1.709 5.048-1.908 7.88-.215 2.808.225 5.79 1.135 8.323.211.588.555 1.468.853 2.046.301.649.658 1.264 1.023 1.872.737 1.215 1.614 2.329 2.572 3.359 1.112 1.198 2.369 2.247 3.718 3.166-7.416 6.377-14.12 5.62-18.904 2.949-3.217-1.797-5.256-5.497-6.515-8.923-.562-1.53-2.862-1.269-2.966.358-1.383 21.482-.317 63.898 20.66 91.732 17.83 23.657 41.85 32.257 73.645 30.183 25.812-1.683 69.562-14.683 92.795-34.424 30.008-25.498 32.679-45.568 35.271-59.495 1.099-5.909 2.001-11.83 2.801-17.644.029.011.054.024.083.036 3.348 1.314 8.247 2.086 13.837 1.215 2.784-.435 5.749-1.23 8.659-2.562 2.913-1.318 5.794-3.093 8.458-5.281 2.653-2.2 5.072-4.81 7.166-7.679l.785-1.08.727-1.117c.498-.74.958-1.502 1.389-2.28.449-.758.871-1.567 1.278-2.397l.614-1.23.502-1.133c1.44-3.212 2.603-6.547 3.419-9.968.808-3.417 1.25-6.911 1.195-10.36-.054-3.443-.626-6.853-1.826-9.95" transform="matrix(-.214661 0 0 .214661 30.3974 28.6405)"/></g></svg>