<?xml version="1.0" encoding="UTF-8"?><svg xmlns="http://www.w3.org/2000/svg" xmlns:xlink="http://www.w3.org/1999/xlink" xmlns:serif="http://www.serif.com/" width="100%" height="100%" viewBox="0 0 100 100" version="1.2" xml:space="preserve" baseProfile="tiny-ps" fill-rule="evenodd" stroke-linejoin="round" stroke-miterlimit="2"><title>Mark Reeves</title><g transform="matrix(0.173961,0,0,0.157008,-158.908,1.54842)"><rect x="913.466" y="-9.862" width="574.841" height="636.909" fill="rgb(255,253,247)"></rect></g><g transform="matrix(-0.214661,0,0,0.214661,21.9021,54.7438)"><path d="M0,-4.14C0.02,-4.955 -0.118,-5.794 -0.25,-6.591C-0.49,-7.401 -0.701,-8.173 -1.115,-8.89C-1.438,-9.613 -2.014,-10.22 -2.467,-10.768C-2.747,-11.016 -3.028,-11.239 -3.296,-11.443C-3.43,-11.543 -3.561,-11.64 -3.688,-11.735C-3.838,-11.824 -4.003,-11.904 -4.155,-11.981C-4.462,-12.136 -4.757,-12.262 -5.028,-12.368C-5.158,-12.417 -5.303,-12.478 -5.403,-12.505C-5.483,-12.518 -5.559,-12.53 -5.632,-12.542C-6.215,-12.622 -6.549,-12.668 -6.549,-12.668L-6.563,-12.67C-7.402,-12.784 -8.257,-12.359 -8.652,-11.557C-9.146,-10.554 -8.733,-9.34 -7.729,-8.846C-7.729,-8.846 -7.428,-8.698 -6.9,-8.438C-6.833,-8.407 -6.763,-8.375 -6.69,-8.341C-6.642,-8.306 -6.647,-8.271 -6.623,-8.238C-6.589,-8.17 -6.555,-8.109 -6.511,-8.063L-6.438,-7.994L-6.34,-7.838C-6.273,-7.736 -6.202,-7.637 -6.114,-7.548C-6.016,-7.27 -5.84,-7.07 -5.768,-6.71C-5.628,-6.418 -5.602,-5.997 -5.523,-5.606C-5.506,-5.167 -5.444,-4.73 -5.505,-4.234C-5.506,-3.76 -5.618,-3.242 -5.685,-2.739C-5.829,-2.233 -5.919,-1.721 -6.105,-1.224C-6.24,-0.715 -6.478,-0.249 -6.659,0.228C-6.83,0.71 -7.122,1.114 -7.299,1.559C-7.527,1.972 -7.783,2.34 -7.976,2.719C-8.209,3.065 -8.443,3.37 -8.626,3.67C-8.806,3.975 -9.025,4.179 -9.169,4.391C-9.48,4.791 -9.649,5.047 -9.649,5.047L-9.836,5.33C-10.213,5.904 -10.276,6.659 -9.936,7.311C-9.436,8.271 -8.253,8.644 -7.294,8.144C-7.294,8.144 -6.957,7.969 -6.384,7.614C-6.104,7.43 -5.728,7.237 -5.381,6.924C-5.015,6.629 -4.609,6.281 -4.181,5.883C-3.782,5.461 -3.362,4.985 -2.937,4.463C-2.553,3.915 -2.129,3.339 -1.787,2.685C-1.426,2.04 -1.1,1.348 -0.848,0.604C-0.541,-0.115 -0.39,-0.915 -0.211,-1.697C-0.113,-2.509 0.053,-3.303 0,-4.14" fill="rgb(27,66,95)" fill-rule="nonzero"></path></g><g transform="matrix(-0.214661,0,0,0.214661,70.4004,48.8642)"><path d="M0,-8.653C-0.19,-8.953 -0.417,-9.327 -0.702,-9.739C-0.846,-9.945 -0.998,-10.165 -1.159,-10.397C-1.349,-10.608 -1.548,-10.83 -1.756,-11.061C-2.173,-11.53 -2.65,-12.015 -3.168,-12.528C-3.737,-12.991 -4.364,-13.456 -5.016,-13.947C-5.686,-14.41 -6.498,-14.738 -7.309,-15.031C-8.149,-15.272 -9.044,-15.422 -9.907,-15.59C-10.805,-15.652 -11.678,-15.807 -12.557,-15.754C-12.991,-15.738 -13.422,-15.722 -13.848,-15.707C-14.271,-15.668 -14.685,-15.594 -15.091,-15.537C-15.906,-15.451 -16.659,-15.181 -17.372,-15.001C-18.066,-14.739 -18.725,-14.529 -19.294,-14.236C-19.877,-13.983 -20.38,-13.686 -20.821,-13.424C-21.26,-13.153 -21.629,-12.904 -21.93,-12.682C-22.224,-12.464 -22.465,-12.277 -22.646,-12.124C-22.832,-11.974 -22.861,-11.931 -22.873,-11.925C-23.629,-11.371 -23.793,-10.31 -23.24,-9.554C-22.687,-8.798 -21.625,-8.634 -20.869,-9.187C-20.878,-9.178 -20.765,-9.253 -20.66,-9.29C-20.532,-9.343 -20.343,-9.421 -20.103,-9.52C-19.583,-9.718 -18.814,-9.983 -17.873,-10.161C-17.482,-10.264 -17.043,-10.302 -16.598,-10.358C-15.734,-9.836 -15.205,-8.766 -15.342,-7.609C-15.501,-6.276 -16.488,-5.281 -17.65,-5.184L-17.65,-5.183C-17.65,-5.183 -18.342,-4.902 -19.094,-4.47C-19.987,-3.958 -20.404,-2.893 -20.144,-1.897C-19.453,0.757 -17.58,2.877 -15.123,3.605C-15.445,3.634 -15.758,3.665 -16.044,3.694C-16.693,3.765 -17.178,3.841 -17.583,3.907C-17.982,3.962 -18.213,4.023 -18.213,4.023C-18.481,4.095 -18.726,4.27 -18.876,4.53C-19.177,5.05 -18.999,5.715 -18.479,6.016C-18.479,6.016 -18.272,6.136 -17.902,6.293C-17.539,6.453 -16.923,6.651 -16.246,6.804C-15.556,6.959 -14.741,7.079 -13.864,7.114C-12.986,7.154 -12.05,7.087 -11.112,7.018C-10.176,6.904 -9.237,6.782 -8.368,6.55C-7.496,6.342 -6.693,6.065 -6.015,5.777C-5.339,5.487 -4.793,5.179 -4.423,4.941C-4.061,4.688 -3.854,4.543 -3.854,4.543C-3.419,4.239 -3.197,3.683 -3.343,3.141C-3.53,2.449 -4.242,2.038 -4.935,2.225L-5.089,2.266C-5.089,2.266 -5.279,2.317 -5.612,2.407C-5.768,2.463 -5.983,2.501 -6.214,2.559C-6.44,2.628 -6.715,2.677 -7.006,2.738C-7.589,2.868 -8.289,2.979 -9.046,3.09C-9.511,3.151 -10.002,3.209 -10.5,3.261C-8.116,2.163 -6.295,-0.31 -5.93,-3.379C-5.758,-4.83 -5.935,-6.233 -6.382,-7.491C-5.95,-7.271 -5.538,-7.046 -5.131,-6.865C-4.673,-6.66 -4.252,-6.451 -3.894,-6.227C-3.531,-6.015 -3.194,-5.846 -2.919,-5.699C-2.36,-5.414 -2.012,-5.265 -2.012,-5.265L-1.79,-5.171C-1.314,-4.97 -0.756,-4.972 -0.258,-5.223C0.645,-5.677 1.008,-6.778 0.554,-7.68C0.554,-7.68 0.371,-8.043 0,-8.653" fill="rgb(27,66,95)" fill-rule="nonzero"></path></g><g transform="matrix(-0.214661,0,0,0.214661,53.8132,47.7525)"><path d="M0,-0.737C-0.186,-1.007 -0.44,-1.424 -0.82,-1.903C-1.189,-2.395 -1.657,-2.973 -2.228,-3.61C-2.809,-4.233 -3.473,-4.935 -4.26,-5.634C-5.055,-6.321 -5.925,-7.067 -6.922,-7.754C-7.915,-8.446 -8.996,-9.139 -10.175,-9.76C-11.353,-10.379 -12.618,-10.942 -13.945,-11.426C-15.284,-11.912 -16.632,-12.264 -18.168,-12.565C-18.569,-12.654 -18.843,-12.679 -19.174,-12.734L-19.891,-12.842L-20.106,-12.872L-20.24,-12.883C-20.958,-12.951 -21.676,-12.992 -22.392,-13.011C-23.824,-13.042 -25.247,-12.964 -26.607,-12.735C-29.336,-12.323 -31.791,-11.393 -33.71,-10.322C-35.641,-9.256 -37.05,-8.066 -37.953,-7.144C-38.412,-6.689 -38.74,-6.289 -38.969,-6.005C-39.085,-5.855 -39.174,-5.74 -39.234,-5.663C-39.304,-5.57 -39.341,-5.522 -39.341,-5.522L-39.462,-5.36C-40.106,-4.498 -39.98,-3.273 -39.151,-2.562C-38.287,-1.821 -36.985,-1.92 -36.244,-2.785C-36.237,-2.793 -36.217,-2.806 -36.19,-2.818C-36.141,-2.853 -36.068,-2.904 -35.972,-2.97C-35.77,-3.111 -35.447,-3.317 -35.032,-3.577C-34.192,-4.088 -32.938,-4.771 -31.362,-5.362C-29.785,-5.952 -27.891,-6.445 -25.809,-6.646C-25.44,-6.676 -25.061,-6.694 -24.682,-6.712C-24.031,-5.707 -23.76,-4.428 -24.051,-3.13C-24.438,-1.403 -25.706,-0.13 -27.229,0.314L-27.225,0.393C-27.225,0.393 -28.755,0.674 -30.228,1.469C-31.245,2.018 -31.59,3.317 -30.967,4.291C-29.821,6.081 -28.198,7.445 -26.284,8.152C-26.618,8.115 -26.96,8.085 -27.282,8.033C-28.435,7.869 -29.497,7.649 -30.416,7.448C-30.856,7.342 -31.26,7.245 -31.619,7.159C-31.973,7.105 -32.337,6.958 -32.623,6.888C-33.2,6.718 -33.541,6.647 -33.541,6.647C-34.027,6.547 -34.553,6.716 -34.884,7.13C-35.355,7.718 -35.26,8.576 -34.672,9.047C-34.672,9.047 -34.4,9.265 -33.903,9.601C-33.649,9.776 -33.376,9.971 -32.948,10.189C-32.538,10.391 -32.065,10.654 -31.55,10.867C-31.033,11.052 -30.483,11.308 -29.873,11.472C-29.263,11.632 -28.624,11.847 -27.94,11.94C-27.601,11.999 -27.255,12.059 -26.906,12.119C-26.553,12.152 -26.196,12.186 -25.836,12.219C-25.117,12.295 -24.383,12.286 -23.652,12.305C-22.188,12.271 -20.73,12.128 -19.387,11.861C-18.719,11.702 -18.069,11.588 -17.47,11.385C-17.051,11.265 -16.66,11.13 -16.283,10.993C-15.514,10.748 -14.806,10.487 -14.221,10.212C-13.608,9.957 -13.129,9.672 -12.792,9.484C-12.456,9.29 -12.27,9.17 -12.27,9.17C-11.872,8.912 -11.624,8.448 -11.666,7.943C-11.708,7.437 -12.037,7.036 -12.472,6.847C-12.825,6.593 -13.293,6.513 -13.731,6.676L-13.859,6.723C-13.859,6.723 -14.013,6.781 -14.288,6.882C-14.555,6.924 -14.852,6.969 -15.194,7.022C-15.788,7.122 -16.476,7.223 -17.205,7.346C-17.843,7.434 -18.511,7.538 -19.183,7.624C-16.1,5.976 -13.798,2.565 -13.401,-1.567C-13.294,-2.676 -13.339,-3.728 -13.509,-4.714C-13.264,-4.613 -13.013,-4.52 -12.775,-4.413C-11.771,-3.984 -10.817,-3.511 -9.937,-3.014C-9.055,-2.519 -8.232,-2.021 -7.49,-1.528C-7.129,-1.27 -6.779,-1.027 -6.44,-0.799C-6.114,-0.556 -5.804,-0.325 -5.513,-0.107C-4.954,0.351 -4.442,0.734 -4.058,1.086C-3.258,1.763 -2.825,2.179 -2.825,2.179L-2.771,2.232C-2.11,2.868 -1.073,2.983 -0.278,2.454C0.641,1.842 0.89,0.601 0.279,-0.318C0.279,-0.318 0.182,-0.464 0,-0.737" fill="rgb(27,66,95)" fill-rule="nonzero"></path></g><g transform="matrix(-0.214661,0,0,0.214661,35.3974,33.6405)"><path d="M0,154.197C-0.054,155.217 -0.136,156.325 -0.252,157.493C-0.38,158.66 -0.558,159.89 -0.768,161.158C-1.016,162.421 -1.249,163.732 -1.604,165.044C-1.781,165.7 -1.938,166.366 -2.135,167.026C-2.345,167.682 -2.555,168.342 -2.765,169.001C-2.969,169.662 -3.239,170.304 -3.479,170.951C-3.716,171.6 -3.978,172.237 -4.268,172.858C-4.799,174.117 -5.434,175.309 -6.04,176.46C-6.694,177.588 -7.333,178.671 -8.013,179.65C-8.664,180.647 -9.373,181.523 -10.007,182.339C-10.668,183.137 -11.267,183.861 -11.858,184.468C-12.431,185.082 -12.947,185.618 -13.381,186.016C-14.245,186.828 -14.775,187.264 -14.775,187.264C-15.116,187.545 -15.62,187.497 -15.901,187.156C-16.099,186.916 -16.133,186.594 -16.018,186.327C-16.018,186.327 -15.744,185.698 -15.201,184.645C-14.941,184.126 -14.625,183.496 -14.263,182.774C-13.899,182.065 -13.517,181.236 -13.056,180.377C-12.652,179.481 -12.159,178.549 -11.708,177.533C-11.22,176.536 -10.765,175.46 -10.268,174.367C-9.807,173.254 -9.311,172.119 -8.863,170.939C-8.384,169.775 -7.97,168.559 -7.524,167.356C-7.111,166.14 -6.684,164.927 -6.315,163.709C-5.9,162.507 -5.593,161.287 -5.215,160.127C-4.548,157.761 -3.925,155.552 -3.391,153.658C-3.155,152.697 -2.888,151.821 -2.665,151.04C-2.444,150.256 -2.252,149.573 -2.093,149.01C-1.763,147.882 -1.536,147.238 -1.536,147.238L-1.53,147.219C-1.396,146.84 -0.981,146.641 -0.601,146.774C-0.327,146.871 -0.148,147.115 -0.119,147.386C-0.119,147.386 -0.049,148.067 0.007,149.259C0.025,149.854 0.083,150.581 0.067,151.409C0.054,152.238 0.055,153.177 0,154.197M-34.16,181.986C-39.834,194.886 -50.981,208.524 -59.869,214.899C-60.322,215.223 -60.923,214.769 -60.739,214.243C-60.306,213.01 -59.733,211.222 -59.304,209.324C-59.079,208.327 -58.955,207.428 -58.886,206.743C-58.836,206.24 -59.418,205.932 -59.811,206.251C-63.237,209.035 -74.914,218.088 -87.46,222.855C-88.056,223.082 -88.52,222.301 -88.035,221.887C-83.686,218.173 -74.172,209.748 -65.961,200.4C-61.517,195.342 -57.218,190.726 -53.476,184.831C-53.166,184.343 -52.404,184.581 -52.429,185.159C-52.521,187.245 -52.756,189.8 -53.237,192.165C-53.344,192.692 -52.733,193.06 -52.323,192.712C-50.231,190.936 -45.828,186.811 -41.019,179.967C-35.858,172.623 -31.436,166.272 -28.483,160.938C-28.279,160.57 -27.722,160.764 -27.792,161.178C-28.402,164.801 -30.076,172.701 -34.16,181.986M-101.418,212.202C-101.418,212.202 -101.526,212.492 -101.75,212.973C-101.844,213.211 -102.051,213.524 -102.259,213.865C-102.469,214.231 -102.731,214.558 -103.015,214.947C-103.291,215.341 -103.646,215.701 -104,216.115C-104.363,216.512 -104.772,216.906 -105.202,217.301C-106.058,218.098 -107.044,218.856 -108.082,219.532C-108.605,219.864 -109.116,220.213 -109.652,220.506C-110.187,220.801 -110.714,221.087 -111.239,221.342C-112.289,221.844 -113.314,222.237 -114.214,222.512C-115.121,222.781 -115.904,222.93 -116.458,222.998C-117.024,223.048 -117.339,223.062 -117.339,223.062C-117.677,223.076 -117.963,222.814 -117.978,222.476C-117.988,222.236 -117.859,222.023 -117.664,221.914L-117.621,221.89C-117.621,221.89 -117.369,221.75 -116.927,221.505C-116.706,221.394 -116.448,221.212 -116.146,221.049C-115.842,220.887 -115.516,220.644 -115.148,220.435C-114.427,219.964 -113.583,219.428 -112.709,218.798C-111.815,218.206 -110.902,217.508 -109.974,216.841C-109.07,216.147 -108.165,215.453 -107.317,214.802C-106.478,214.145 -105.699,213.532 -105.041,212.999C-104.718,212.734 -104.421,212.492 -104.158,212.278C-103.909,212.056 -103.679,211.908 -103.48,211.714C-103.089,211.355 -102.845,211.164 -102.845,211.164C-102.448,210.85 -101.872,210.917 -101.558,211.314C-101.354,211.573 -101.313,211.913 -101.418,212.202M-151.485,180.508C-163.988,176.759 -168.504,164.522 -173.629,161.413C-173.64,161.406 -173.651,161.399 -173.663,161.392C-175.084,160.532 -174.115,158.332 -172.53,158.832C-172.449,158.857 -172.368,158.884 -172.285,158.911C-168.744,160.103 -163.687,164.028 -157.518,166.444C-151.243,168.901 -138.649,168.818 -133.085,167.491C-126.727,165.974 -119.62,163.878 -113.244,163.783C-110.408,163.74 -108.282,164.488 -106.925,165.186C-106.168,165.575 -106.246,166.678 -107.054,166.947C-108.538,167.44 -110.626,168.169 -112.285,168.882C-118.55,171.574 -121.394,173.258 -128.245,177.528C-135.057,181.774 -144.484,182.607 -151.485,180.508M-180.029,82.945L-193.396,82.945C-199.642,82.945 -204.797,78.966 -205.186,72.295C-205.488,67.102 -206.186,51.513 -206.186,51.513C-206.186,48.638 -203.855,46.307 -200.98,46.307L-162.764,45.473C-157.928,45.473 -154.383,50.022 -155.563,54.712C-155.563,54.712 -160.401,66.374 -162.007,69.692C-167.128,80.275 -170.537,82.945 -180.029,82.945M-128.939,43.859C-115.978,43.763 -92.103,42.625 -78.396,42.638C-71.781,42.644 -66.576,45.475 -66.578,53.158C-66.58,57.434 -67.824,65.99 -68.096,70.257C-68.646,78.921 -74.465,83.945 -82.072,83.945L-110.87,83.945C-123.306,83.945 -127.014,81.065 -131.687,66.598C-133.498,60.992 -135.04,55.896 -135.794,52.239C-136.666,48.007 -133.259,43.891 -128.939,43.859M76.445,82.38C75.243,79.295 73.379,76.548 71.12,74.595C70.851,74.352 70.559,74.106 70.236,73.861L69.771,73.502L69.392,73.241L69.024,72.996C68.764,72.813 68.656,72.768 68.465,72.65C68.382,72.599 68.299,72.557 68.216,72.51C68.436,71.706 68.766,70.5 69.2,68.909C69.615,67.35 70.171,65.437 70.74,63.167C71.202,60.869 71.734,58.229 72.329,55.271C72.668,53.799 72.855,52.218 73.07,50.563C73.287,48.908 73.515,47.176 73.752,45.371C74.046,43.57 74.071,41.668 74.221,39.706C74.321,37.741 74.498,35.707 74.541,33.601C74.652,25.172 74.096,15.628 72.204,5.396C70.31,-4.824 67.012,-15.71 61.858,-26.509C61.204,-27.853 60.545,-29.207 59.881,-30.57C59.176,-31.912 58.397,-33.228 57.65,-34.571C56.208,-37.288 54.431,-39.858 52.725,-42.509C51.883,-43.835 50.832,-45.116 49.883,-46.43C48.908,-47.737 47.929,-49.091 46.919,-50.214C45.882,-51.429 44.839,-52.651 43.792,-53.878C42.663,-55.047 41.528,-56.222 40.389,-57.402C35.726,-62.009 30.619,-66.284 25.172,-70.21C19.729,-74.151 13.854,-77.589 7.774,-80.713C-4.417,-86.936 -17.788,-91.202 -31.45,-93.59C-34.895,-94.058 -38.275,-94.682 -41.809,-94.917C-43.549,-95.06 -45.332,-95.261 -47.033,-95.351L-52.062,-95.528L-53.317,-95.572L-53.945,-95.594L-54.375,-95.606L-54.696,-95.602L-57.267,-95.569C-59.032,-95.545 -60.795,-95.521 -62.555,-95.498C-63.516,-95.445 -64.473,-95.393 -65.434,-95.34C-67.831,-95.145 -70.229,-95.098 -72.607,-94.787C-74.299,-94.599 -75.987,-94.411 -77.671,-94.223C-79.353,-94.019 -81.02,-93.7 -82.689,-93.444C-86.035,-92.978 -89.307,-92.152 -92.581,-91.475C-99.069,-89.828 -105.422,-87.904 -111.451,-85.401C-117.464,-82.884 -123.264,-80.09 -128.607,-76.775C-133.948,-73.472 -138.985,-69.926 -143.556,-66.07C-144.758,-65.089 -145.902,-63.989 -147.065,-62.972C-147.63,-62.455 -148.198,-61.935 -148.763,-61.418C-149.208,-60.98 -149.652,-60.542 -150.094,-60.107C-150.594,-59.614 -151.093,-59.123 -151.589,-58.633L-152.332,-57.901L-152.488,-57.747L-152.577,-57.648L-152.757,-57.449L-153.115,-57.052C-154.07,-55.995 -155.016,-54.946 -155.954,-53.906C-156.891,-52.866 -157.82,-51.834 -158.741,-50.812C-159.626,-49.759 -160.438,-48.659 -161.276,-47.6C-162.916,-45.451 -164.634,-43.427 -166.018,-41.221C-171.978,-32.706 -176.307,-24.147 -179.331,-16.291C-182.386,-8.439 -184.258,-1.319 -185.371,4.612C-186.503,10.544 -186.929,15.283 -187.077,18.535C-187.157,20.171 -187.179,21.394 -187.169,22.292C-187.167,23.19 -187.145,23.588 -187.145,23.588L-187.141,23.662C-187.065,24.948 -185.992,25.963 -184.689,25.951C-183.345,25.939 -182.265,24.84 -182.277,23.496C-182.277,23.496 -182.281,23.053 -182.248,22.321C-182.224,21.59 -182.152,20.395 -182.011,18.886C-181.741,15.848 -181.142,11.363 -179.82,5.777C-178.488,0.198 -176.504,-6.507 -173.372,-13.85C-170.274,-21.203 -165.885,-29.12 -160.114,-37.033C-158.77,-39.083 -157.094,-40.953 -155.506,-42.942C-154.692,-43.922 -153.908,-44.941 -153.052,-45.914C-152.16,-46.858 -151.26,-47.809 -150.353,-48.769C-149.448,-49.729 -148.534,-50.697 -147.614,-51.672L-146.978,-52.341L-146.218,-53.056C-145.711,-53.534 -145.201,-54.014 -144.69,-54.495C-144.179,-54.976 -143.666,-55.458 -143.152,-55.942C-142.733,-56.305 -142.311,-56.67 -141.892,-57.033C-140.741,-57.974 -139.671,-58.978 -138.468,-59.912C-134.143,-63.453 -129.398,-66.701 -124.375,-69.715C-123.101,-70.439 -121.821,-71.166 -120.534,-71.898C-119.229,-72.597 -117.883,-73.235 -116.556,-73.924C-115.886,-74.255 -115.231,-74.62 -114.544,-74.926L-112.479,-75.844C-111.089,-76.433 -109.737,-77.126 -108.301,-77.642C-106.878,-78.188 -105.449,-78.736 -104.015,-79.286C-102.576,-79.822 -101.091,-80.253 -99.623,-80.746L-97.411,-81.469L-95.155,-82.084C-93.646,-82.484 -92.139,-82.915 -90.615,-83.296C-87.532,-83.928 -84.463,-84.714 -81.302,-85.149C-79.727,-85.39 -78.159,-85.695 -76.568,-85.887C-74.975,-86.064 -73.378,-86.242 -71.778,-86.42C-69.534,-86.718 -67.254,-86.757 -64.986,-86.945C-64.077,-86.995 -63.172,-87.046 -62.263,-87.097C-60.582,-87.119 -58.897,-87.141 -57.211,-87.164L-54.764,-87.197L-54.458,-87.202C-54.482,-87.203 -54.484,-87.203 -54.495,-87.203C-54.463,-87.202 -54.417,-87.2 -54.417,-87.2L-54.26,-87.194L-53.633,-87.169L-52.378,-87.119L-47.35,-86.918C-45.701,-86.821 -44.145,-86.625 -42.536,-86.486C-39.356,-86.269 -36.111,-85.651 -32.892,-85.203C-31.287,-84.919 -29.697,-84.559 -28.099,-84.242L-25.705,-83.752L-23.341,-83.14C-21.768,-82.722 -20.187,-82.336 -18.624,-81.895L-13.98,-80.421C-12.421,-79.968 -10.921,-79.348 -9.402,-78.792C-7.892,-78.211 -6.356,-77.699 -4.891,-77.021C-3.408,-76.384 -1.928,-75.748 -0.451,-75.113C0.994,-74.407 2.436,-73.702 3.875,-72.999C9.57,-70.075 15.076,-66.865 20.157,-63.188C25.243,-59.526 29.998,-55.549 34.315,-51.293C38.638,-47.109 42.487,-42.269 45.763,-37.702C47.361,-35.26 49.038,-32.906 50.401,-30.386C51.108,-29.144 51.847,-27.929 52.518,-26.686C53.148,-25.42 53.775,-24.163 54.398,-22.914C59.313,-12.881 62.52,-2.691 64.397,6.905C66.272,16.513 66.89,25.51 66.868,33.477C66.849,35.469 66.694,37.395 66.623,39.256C66.513,41.115 66.53,42.917 66.277,44.628C66.083,46.345 65.897,47.991 65.719,49.565C65.544,51.139 65.398,52.644 65.097,54.049C64.582,56.874 64.122,59.395 63.722,61.589C63.218,63.762 62.718,65.597 62.35,67.092C61.916,68.806 61.603,70.043 61.411,70.802C59.957,70.766 58.655,70.896 57.555,71.115C55.908,71.441 54.728,71.883 53.835,72.279C53.399,72.466 53.2,72.599 53.001,72.694C52.823,72.787 52.731,72.835 52.731,72.835C51.848,73.296 51.391,74.354 51.742,75.351C52.107,76.391 53.287,76.908 54.352,76.619L54.521,76.573C54.699,76.533 55.04,76.414 55.343,76.368C55.912,76.258 56.933,76.087 58.156,76.05C59.384,76.018 60.905,76.12 62.464,76.57C63.237,76.792 64.024,77.092 64.689,77.501C64.857,77.601 65.02,77.704 65.158,77.82C65.208,77.862 65.357,77.957 65.329,77.954L65.669,78.236L66.005,78.514L66.232,78.738C66.381,78.874 66.544,79.039 66.717,79.23C68.064,80.68 69.234,82.526 69.995,84.772C70.779,87.003 71.155,89.601 71.108,92.348C71.067,95.099 70.605,97.991 69.84,100.882C69.083,103.774 67.996,106.686 66.669,109.472L66.143,110.594L65.622,111.565C65.288,112.21 64.935,112.857 64.529,113.506C64.147,114.159 63.761,114.805 63.334,115.418L62.717,116.351L62.055,117.241C60.292,119.609 58.305,121.707 56.172,123.444C54.029,125.168 51.755,126.534 49.486,127.538C47.214,128.537 44.951,129.163 42.847,129.512C38.616,130.217 35.088,129.587 33.068,128.826C32.243,128.518 31.647,128.21 31.244,127.955C32.311,119.564 33.249,111.537 34.354,104.269C35.846,94.451 -11.896,133.807 -60.896,145.046C-109.473,156.187 -128.834,140.291 -135.247,132.216C-134.201,132.08 -133.181,131.806 -132.245,131.4C-131.241,130.957 -130.327,130.391 -129.519,129.751C-129.12,129.427 -128.743,129.083 -128.393,128.727C-128.045,128.37 -127.709,128.007 -127.409,127.628C-127.094,127.257 -126.83,126.858 -126.56,126.469C-126.311,126.069 -126.047,125.68 -125.836,125.27C-125.382,124.462 -125.031,123.625 -124.713,122.789C-124.372,121.886 -124.765,120.779 -125.836,120.373C-126.546,120.105 -127.353,120.35 -127.849,120.923L-127.911,120.994C-128.924,122.162 -129.928,123.26 -131.023,124.085C-131.288,124.302 -131.565,124.489 -131.838,124.668C-132.111,124.849 -132.394,124.994 -132.665,125.145C-133.211,125.435 -133.764,125.639 -134.303,125.762C-134.575,125.815 -134.837,125.869 -135.099,125.898C-135.362,125.921 -135.62,125.936 -135.877,125.922C-136.389,125.9 -136.887,125.798 -137.375,125.658C-138.349,125.359 -139.261,124.754 -139.96,124.03C-141.153,122.803 -143.117,122.646 -144.484,123.736L-144.701,123.908C-146.267,125.157 -147.939,126.191 -149.699,126.845C-151.456,127.506 -153.287,127.832 -155.119,127.772C-156.949,127.731 -158.778,127.287 -160.484,126.529C-162.181,125.754 -163.762,124.656 -165.045,123.284C-165.688,122.602 -166.28,121.87 -166.764,121.08C-167.003,120.684 -167.244,120.287 -167.436,119.871C-167.672,119.404 -167.755,119.187 -167.955,118.679C-168.638,116.799 -168.863,115.034 -168.745,113.162C-168.503,109.446 -166.641,105.457 -164.467,101.507C-162.273,97.545 -159.771,93.56 -157.364,89.49L-155.56,86.411C-154.949,85.352 -154.361,84.279 -153.796,83.193C-152.67,81.019 -151.63,78.795 -150.693,76.524C-148.82,71.984 -147.365,67.249 -146.447,62.381C-146.151,60.829 -145.934,59.259 -145.756,57.68C-144.044,57.84 -142.539,58.934 -141.887,60.559L-135.362,79.335C-132.71,86.968 -125.551,92.115 -117.47,92.197L-78.063,92.601C-69.656,92.69 -61.057,86.73 -59.271,78.514C-58.413,74.564 -57.303,67.983 -56.489,64.345C-55.581,60.287 -52.445,57.517 -48.396,58.462C-29.028,62.984 26.852,76.27 42.667,80.446C45.074,81.081 47.414,79.261 47.414,76.758L47.414,76.664C47.414,75.167 46.497,73.824 45.104,73.278L-46.577,38.664C-55.838,35.035 -65.741,33.328 -75.683,33.647L-205.373,37.812C-210.531,37.978 -214.556,42.332 -214.318,47.487L-212.844,74.427C-212.38,82.927 -205.446,89.634 -196.936,89.816L-172.09,90.348C-169.46,90.405 -166.953,89.593 -164.896,88.131C-166.847,91.363 -168.844,94.608 -170.753,98.038C-171.927,100.166 -173.062,102.379 -174.021,104.784C-174.968,107.186 -175.73,109.832 -175.929,112.664C-176.144,115.472 -175.704,118.454 -174.794,120.987C-174.583,121.575 -174.239,122.455 -173.941,123.033C-173.64,123.682 -173.283,124.297 -172.918,124.905C-172.181,126.12 -171.304,127.234 -170.346,128.264C-169.234,129.462 -167.977,130.511 -166.628,131.43C-174.044,137.807 -180.748,137.05 -185.532,134.379C-188.749,132.582 -190.788,128.882 -192.047,125.456C-192.609,123.926 -194.909,124.187 -195.013,125.814C-196.396,147.296 -195.33,189.712 -174.353,217.546C-156.523,241.203 -132.503,249.803 -100.708,247.729C-74.896,246.046 -31.146,233.046 -7.913,213.305C22.095,187.807 24.766,167.737 27.358,153.81C28.457,147.901 29.359,141.98 30.159,136.166C30.188,136.177 30.213,136.19 30.242,136.202C33.59,137.516 38.489,138.288 44.079,137.417C46.863,136.982 49.828,136.187 52.738,134.855C55.651,133.537 58.532,131.762 61.196,129.574C63.849,127.374 66.268,124.764 68.362,121.895L69.147,120.815L69.874,119.698C70.372,118.958 70.832,118.196 71.263,117.418C71.712,116.66 72.134,115.851 72.541,115.021L73.155,113.791L73.657,112.658C75.097,109.446 76.26,106.111 77.076,102.69C77.884,99.273 78.326,95.779 78.271,92.33C78.217,88.887 77.645,85.477 76.445,82.38" fill="rgb(59,79,89)" fill-rule="nonzero"></path></g><g transform="matrix(-0.214661,0,0,0.214661,35.3974,33.6405)"><path d="M0,154.197C-0.054,155.217 -0.136,156.325 -0.252,157.493C-0.38,158.66 -0.558,159.89 -0.768,161.158C-1.016,162.421 -1.249,163.732 -1.604,165.044C-1.781,165.7 -1.938,166.366 -2.135,167.026C-2.345,167.682 -2.555,168.342 -2.765,169.001C-2.969,169.662 -3.239,170.304 -3.479,170.951C-3.716,171.6 -3.978,172.237 -4.268,172.858C-4.799,174.117 -5.434,175.309 -6.04,176.46C-6.694,177.588 -7.333,178.671 -8.013,179.65C-8.664,180.647 -9.373,181.523 -10.007,182.339C-10.668,183.137 -11.267,183.861 -11.858,184.468C-12.431,185.082 -12.947,185.618 -13.381,186.016C-14.245,186.828 -14.775,187.264 -14.775,187.264C-15.116,187.545 -15.62,187.497 -15.901,187.156C-16.099,186.916 -16.133,186.594 -16.018,186.327C-16.018,186.327 -15.744,185.698 -15.201,184.645C-14.941,184.126 -14.625,183.496 -14.263,182.774C-13.899,182.065 -13.517,181.236 -13.056,180.377C-12.652,179.481 -12.159,178.549 -11.708,177.533C-11.22,176.536 -10.765,175.46 -10.268,174.367C-9.807,173.254 -9.311,172.119 -8.863,170.939C-8.384,169.775 -7.97,168.559 -7.524,167.356C-7.111,166.14 -6.684,164.927 -6.315,163.709C-5.9,162.507 -5.593,161.287 -5.215,160.127C-4.548,157.761 -3.925,155.552 -3.391,153.658C-3.155,152.697 -2.888,151.821 -2.665,151.04C-2.444,150.256 -2.252,149.573 -2.093,149.01C-1.763,147.882 -1.536,147.238 -1.536,147.238L-1.53,147.219C-1.396,146.84 -0.981,146.641 -0.601,146.774C-0.327,146.871 -0.148,147.115 -0.119,147.386C-0.119,147.386 -0.049,148.067 0.007,149.259C0.025,149.854 0.083,150.581 0.067,151.409C0.054,152.238 0.055,153.177 0,154.197M-34.16,181.986C-39.834,194.886 -50.981,208.524 -59.869,214.899C-60.322,215.223 -60.923,214.769 -60.739,214.243C-60.306,213.01 -59.733,211.222 -59.304,209.324C-59.079,208.327 -58.955,207.428 -58.886,206.743C-58.836,206.24 -59.418,205.932 -59.811,206.251C-63.237,209.035 -74.914,218.088 -87.46,222.855C-88.056,223.082 -88.52,222.301 -88.035,221.887C-83.686,218.173 -74.172,209.748 -65.961,200.4C-61.517,195.342 -57.218,190.726 -53.476,184.831C-53.166,184.343 -52.404,184.581 -52.429,185.159C-52.521,187.245 -52.756,189.8 -53.237,192.165C-53.344,192.692 -52.733,193.06 -52.323,192.712C-50.231,190.936 -45.828,186.811 -41.019,179.967C-35.858,172.623 -31.436,166.272 -28.483,160.938C-28.279,160.57 -27.722,160.764 -27.792,161.178C-28.402,164.801 -30.076,172.701 -34.16,181.986M-101.418,212.202C-101.418,212.202 -101.526,212.492 -101.75,212.973C-101.844,213.211 -102.051,213.524 -102.259,213.865C-102.469,214.231 -102.731,214.558 -103.015,214.947C-103.291,215.341 -103.646,215.701 -104,216.115C-104.363,216.512 -104.772,216.906 -105.202,217.301C-106.058,218.098 -107.044,218.856 -108.082,219.532C-108.605,219.864 -109.116,220.213 -109.652,220.506C-110.187,220.801 -110.714,221.087 -111.239,221.342C-112.289,221.844 -113.314,222.237 -114.214,222.512C-115.121,222.781 -115.904,222.93 -116.458,222.998C-117.024,223.048 -117.339,223.062 -117.339,223.062C-117.677,223.076 -117.963,222.814 -117.978,222.476C-117.988,222.236 -117.859,222.023 -117.664,221.914L-117.621,221.89C-117.621,221.89 -117.369,221.75 -116.927,221.505C-116.706,221.394 -116.448,221.212 -116.146,221.049C-115.842,220.887 -115.516,220.644 -115.148,220.435C-114.427,219.964 -113.583,219.428 -112.709,218.798C-111.815,218.206 -110.902,217.508 -109.974,216.841C-109.07,216.147 -108.165,215.453 -107.317,214.802C-106.478,214.145 -105.699,213.532 -105.041,212.999C-104.718,212.734 -104.421,212.492 -104.158,212.278C-103.909,212.056 -103.679,211.908 -103.48,211.714C-103.089,211.355 -102.845,211.164 -102.845,211.164C-102.448,210.85 -101.872,210.917 -101.558,211.314C-101.354,211.573 -101.313,211.913 -101.418,212.202M-151.485,180.508C-163.988,176.759 -168.504,164.522 -173.629,161.413C-173.64,161.406 -173.651,161.399 -173.663,161.392C-175.084,160.532 -174.115,158.332 -172.53,158.832C-172.449,158.857 -172.368,158.884 -172.285,158.911C-168.744,160.103 -163.687,164.028 -157.518,166.444C-151.243,168.901 -138.649,168.818 -133.085,167.491C-126.727,165.974 -119.62,163.878 -113.244,163.783C-110.408,163.74 -108.282,164.488 -106.925,165.186C-106.168,165.575 -106.246,166.678 -107.054,166.947C-108.538,167.44 -110.626,168.169 -112.285,168.882C-118.55,171.574 -121.394,173.258 -128.245,177.528C-135.057,181.774 -144.484,182.607 -151.485,180.508M-180.029,82.945L-193.396,82.945C-199.642,82.945 -204.797,78.966 -205.186,72.295C-205.488,67.102 -206.186,51.513 -206.186,51.513C-206.186,48.638 -203.855,46.307 -200.98,46.307L-162.764,45.473C-157.928,45.473 -154.383,50.022 -155.563,54.712C-155.563,54.712 -160.401,66.374 -162.007,69.692C-167.128,80.275 -170.537,82.945 -180.029,82.945M-128.939,43.859C-115.978,43.763 -92.103,42.625 -78.396,42.638C-71.781,42.644 -66.576,45.475 -66.578,53.158C-66.58,57.434 -67.824,65.99 -68.096,70.257C-68.646,78.921 -74.465,83.945 -82.072,83.945L-110.87,83.945C-123.306,83.945 -127.014,81.065 -131.687,66.598C-133.498,60.992 -135.04,55.896 -135.794,52.239C-136.666,48.007 -133.259,43.891 -128.939,43.859M76.445,82.38C75.243,79.295 73.379,76.548 71.12,74.595C70.851,74.352 70.559,74.106 70.236,73.861L69.771,73.502L69.392,73.241L69.024,72.996C68.764,72.813 68.656,72.768 68.465,72.65C68.382,72.599 68.299,72.557 68.216,72.51C68.436,71.706 68.766,70.5 69.2,68.909C69.615,67.35 70.171,65.437 70.74,63.167C71.202,60.869 71.734,58.229 72.329,55.271C72.668,53.799 72.855,52.218 73.07,50.563C73.287,48.908 73.515,47.176 73.752,45.371C74.046,43.57 74.071,41.668 74.221,39.706C74.321,37.741 74.498,35.707 74.541,33.601C74.652,25.172 74.096,15.628 72.204,5.396C70.31,-4.824 67.012,-15.71 61.858,-26.509C61.204,-27.853 60.545,-29.207 59.881,-30.57C59.176,-31.912 58.397,-33.228 57.65,-34.571C56.208,-37.288 54.431,-39.858 52.725,-42.509C51.883,-43.835 50.832,-45.116 49.883,-46.43C48.908,-47.737 47.929,-49.091 46.919,-50.214C45.882,-51.429 44.839,-52.651 43.792,-53.878C42.663,-55.047 41.528,-56.222 40.389,-57.402C35.726,-62.009 30.619,-66.284 25.172,-70.21C19.729,-74.151 13.854,-77.589 7.774,-80.713C-4.417,-86.936 -17.788,-91.202 -31.45,-93.59C-34.895,-94.058 -38.275,-94.682 -41.809,-94.917C-43.549,-95.06 -45.332,-95.261 -47.033,-95.351L-52.062,-95.528L-53.317,-95.572L-53.945,-95.594L-54.375,-95.606L-54.696,-95.602L-57.267,-95.569C-59.032,-95.545 -60.795,-95.521 -62.555,-95.498C-63.516,-95.445 -64.473,-95.393 -65.434,-95.34C-67.831,-95.145 -70.229,-95.098 -72.607,-94.787C-74.299,-94.599 -75.987,-94.411 -77.671,-94.223C-79.353,-94.019 -81.02,-93.7 -82.689,-93.444C-86.035,-92.978 -89.307,-92.152 -92.581,-91.475C-99.069,-89.828 -105.422,-87.904 -111.451,-85.401C-117.464,-82.884 -123.264,-80.09 -128.607,-76.775C-133.948,-73.472 -138.985,-69.926 -143.556,-66.07C-144.758,-65.089 -145.902,-63.989 -147.065,-62.972C-147.63,-62.455 -148.198,-61.935 -148.763,-61.418C-149.208,-60.98 -149.652,-60.542 -150.094,-60.107C-150.594,-59.614 -151.093,-59.123 -151.589,-58.633L-152.332,-57.901L-152.488,-57.747L-152.577,-57.648L-152.757,-57.449L-153.115,-57.052C-154.07,-55.995 -155.016,-54.946 -155.954,-53.906C-156.891,-52.866 -157.82,-51.834 -158.741,-50.812C-159.626,-49.759 -160.438,-48.659 -161.276,-47.6C-162.916,-45.451 -164.634,-43.427 -166.018,-41.221C-171.978,-32.706 -176.307,-24.147 -179.331,-16.291C-182.386,-8.439 -184.258,-1.319 -185.371,4.612C-186.503,10.544 -186.929,15.283 -187.077,18.535C-187.157,20.171 -187.179,21.394 -187.169,22.292C-187.167,23.19 -187.145,23.588 -187.145,23.588L-187.141,23.662C-187.065,24.948 -185.992,25.963 -184.689,25.951C-183.345,25.939 -182.265,24.84 -182.277,23.496C-182.277,23.496 -182.281,23.053 -182.248,22.321C-182.224,21.59 -182.152,20.395 -182.011,18.886C-181.741,15.848 -181.142,11.363 -179.82,5.777C-178.488,0.198 -176.504,-6.507 -173.372,-13.85C-170.274,-21.203 -165.885,-29.12 -160.114,-37.033C-158.77,-39.083 -157.094,-40.953 -155.506,-42.942C-154.692,-43.922 -153.908,-44.941 -153.052,-45.914C-152.16,-46.858 -151.26,-47.809 -150.353,-48.769C-149.448,-49.729 -148.534,-50.697 -147.614,-51.672L-146.978,-52.341L-146.218,-53.056C-145.711,-53.534 -145.201,-54.014 -144.69,-54.495C-144.179,-54.976 -143.666,-55.458 -143.152,-55.942C-142.733,-56.305 -142.311,-56.67 -141.892,-57.033C-140.741,-57.974 -139.671,-58.978 -138.468,-59.912C-134.143,-63.453 -129.398,-66.701 -124.375,-69.715C-123.101,-70.439 -121.821,-71.166 -120.534,-71.898C-119.229,-72.597 -117.883,-73.235 -116.556,-73.924C-115.886,-74.255 -115.231,-74.62 -114.544,-74.926L-112.479,-75.844C-111.089,-76.433 -109.737,-77.126 -108.301,-77.642C-106.878,-78.188 -105.449,-78.736 -104.015,-79.286C-102.576,-79.822 -101.091,-80.253 -99.623,-80.746L-97.411,-81.469L-95.155,-82.084C-93.646,-82.484 -92.139,-82.915 -90.615,-83.296C-87.532,-83.928 -84.463,-84.714 -81.302,-85.149C-79.727,-85.39 -78.159,-85.695 -76.568,-85.887C-74.975,-86.064 -73.378,-86.242 -71.778,-86.42C-69.534,-86.718 -67.254,-86.757 -64.986,-86.945C-64.077,-86.995 -63.172,-87.046 -62.263,-87.097C-60.582,-87.119 -58.897,-87.141 -57.211,-87.164L-54.764,-87.197L-54.458,-87.202C-54.482,-87.203 -54.484,-87.203 -54.495,-87.203C-54.463,-87.202 -54.417,-87.2 -54.417,-87.2L-54.26,-87.194L-53.633,-87.169L-52.378,-87.119L-47.35,-86.918C-45.701,-86.821 -44.145,-86.625 -42.536,-86.486C-39.356,-86.269 -36.111,-85.651 -32.892,-85.203C-31.287,-84.919 -29.697,-84.559 -28.099,-84.242L-25.705,-83.752L-23.341,-83.14C-21.768,-82.722 -20.187,-82.336 -18.624,-81.895L-13.98,-80.421C-12.421,-79.968 -10.921,-79.348 -9.402,-78.792C-7.892,-78.211 -6.356,-77.699 -4.891,-77.021C-3.408,-76.384 -1.928,-75.748 -0.451,-75.113C0.994,-74.407 2.436,-73.702 3.875,-72.999C9.57,-70.075 15.076,-66.865 20.157,-63.188C25.243,-59.526 29.998,-55.549 34.315,-51.293C38.638,-47.109 42.487,-42.269 45.763,-37.702C47.361,-35.26 49.038,-32.906 50.401,-30.386C51.108,-29.144 51.847,-27.929 52.518,-26.686C53.148,-25.42 53.775,-24.163 54.398,-22.914C59.313,-12.881 62.52,-2.691 64.397,6.905C66.272,16.513 66.89,25.51 66.868,33.477C66.849,35.469 66.694,37.395 66.623,39.256C66.513,41.115 66.53,42.917 66.277,44.628C66.083,46.345 65.897,47.991 65.719,49.565C65.544,51.139 65.398,52.644 65.097,54.049C64.582,56.874 64.122,59.395 63.722,61.589C63.218,63.762 62.718,65.597 62.35,67.092C61.916,68.806 61.603,70.043 61.411,70.802C59.957,70.766 58.655,70.896 57.555,71.115C55.908,71.441 54.728,71.883 53.835,72.279C53.399,72.466 53.2,72.599 53.001,72.694C52.823,72.787 52.731,72.835 52.731,72.835C51.848,73.296 51.391,74.354 51.742,75.351C52.107,76.391 53.287,76.908 54.352,76.619L54.521,76.573C54.699,76.533 55.04,76.414 55.343,76.368C55.912,76.258 56.933,76.087 58.156,76.05C59.384,76.018 60.905,76.12 62.464,76.57C63.237,76.792 64.024,77.092 64.689,77.501C64.857,77.601 65.02,77.704 65.158,77.82C65.208,77.862 65.357,77.957 65.329,77.954L65.669,78.236L66.005,78.514L66.232,78.738C66.381,78.874 66.544,79.039 66.717,79.23C68.064,80.68 69.234,82.526 69.995,84.772C70.779,87.003 71.155,89.601 71.108,92.348C71.067,95.099 70.605,97.991 69.84,100.882C69.083,103.774 67.996,106.686 66.669,109.472L66.143,110.594L65.622,111.565C65.288,112.21 64.935,112.857 64.529,113.506C64.147,114.159 63.761,114.805 63.334,115.418L62.717,116.351L62.055,117.241C60.292,119.609 58.305,121.707 56.172,123.444C54.029,125.168 51.755,126.534 49.486,127.538C47.214,128.537 44.951,129.163 42.847,129.512C38.616,130.217 35.088,129.587 33.068,128.826C32.243,128.518 31.647,128.21 31.244,127.955C32.311,119.564 33.249,111.537 34.354,104.269C35.846,94.451 -11.896,133.807 -60.896,145.046C-109.473,156.187 -128.834,140.291 -135.247,132.216C-134.201,132.08 -133.181,131.806 -132.245,131.4C-131.241,130.957 -130.327,130.391 -129.519,129.751C-129.12,129.427 -128.743,129.083 -128.393,128.727C-128.045,128.37 -127.709,128.007 -127.409,127.628C-127.094,127.257 -126.83,126.858 -126.56,126.469C-126.311,126.069 -126.047,125.68 -125.836,125.27C-125.382,124.462 -125.031,123.625 -124.713,122.789C-124.372,121.886 -124.765,120.779 -125.836,120.373C-126.546,120.105 -127.353,120.35 -127.849,120.923L-127.911,120.994C-128.924,122.162 -129.928,123.26 -131.023,124.085C-131.288,124.302 -131.565,124.489 -131.838,124.668C-132.111,124.849 -132.394,124.994 -132.665,125.145C-133.211,125.435 -133.764,125.639 -134.303,125.762C-134.575,125.815 -134.837,125.869 -135.099,125.898C-135.362,125.921 -135.62,125.936 -135.877,125.922C-136.389,125.9 -136.887,125.798 -137.375,125.658C-138.349,125.359 -139.261,124.754 -139.96,124.03C-141.153,122.803 -143.117,122.646 -144.484,123.736L-144.701,123.908C-146.267,125.157 -147.939,126.191 -149.699,126.845C-151.456,127.506 -153.287,127.832 -155.119,127.772C-156.949,127.731 -158.778,127.287 -160.484,126.529C-162.181,125.754 -163.762,124.656 -165.045,123.284C-165.688,122.602 -166.28,121.87 -166.764,121.08C-167.003,120.684 -167.244,120.287 -167.436,119.871C-167.672,119.404 -167.755,119.187 -167.955,118.679C-168.638,116.799 -168.863,115.034 -168.745,113.162C-168.503,109.446 -166.641,105.457 -164.467,101.507C-162.273,97.545 -159.771,93.56 -157.364,89.49L-155.56,86.411C-154.949,85.352 -154.361,84.279 -153.796,83.193C-152.67,81.019 -151.63,78.795 -150.693,76.524C-148.82,71.984 -147.365,67.249 -146.447,62.381C-146.151,60.829 -145.934,59.259 -145.756,57.68C-144.044,57.84 -142.539,58.934 -141.887,60.559L-135.362,79.335C-132.71,86.968 -125.551,92.115 -117.47,92.197L-78.063,92.601C-69.656,92.69 -61.057,86.73 -59.271,78.514C-58.413,74.564 -57.303,67.983 -56.489,64.345C-55.581,60.287 -52.445,57.517 -48.396,58.462C-29.028,62.984 26.852,76.27 42.667,80.446C45.074,81.081 47.414,79.261 47.414,76.758L47.414,76.664C47.414,75.167 46.497,73.824 45.104,73.278L-46.577,38.664C-55.838,35.035 -65.741,33.328 -75.683,33.647L-205.373,37.812C-210.531,37.978 -214.556,42.332 -214.318,47.487L-212.844,74.427C-212.38,82.927 -205.446,89.634 -196.936,89.816L-172.09,90.348C-169.46,90.405 -166.953,89.593 -164.896,88.131C-166.847,91.363 -168.844,94.608 -170.753,98.038C-171.927,100.166 -173.062,102.379 -174.021,104.784C-174.968,107.186 -175.73,109.832 -175.929,112.664C-176.144,115.472 -175.704,118.454 -174.794,120.987C-174.583,121.575 -174.239,122.455 -173.941,123.033C-173.64,123.682 -173.283,124.297 -172.918,124.905C-172.181,126.12 -171.304,127.234 -170.346,128.264C-169.234,129.462 -167.977,130.511 -166.628,131.43C-174.044,137.807 -180.748,137.05 -185.532,134.379C-188.749,132.582 -190.788,128.882 -192.047,125.456C-192.609,123.926 -194.909,124.187 -195.013,125.814C-196.396,147.296 -195.33,189.712 -174.353,217.546C-156.523,241.203 -132.503,249.803 -100.708,247.729C-74.896,246.046 -31.146,233.046 -7.913,213.305C22.095,187.807 24.766,167.737 27.358,153.81C28.457,147.901 29.359,141.98 30.159,136.166C30.188,136.177 30.213,136.19 30.242,136.202C33.59,137.516 38.489,138.288 44.079,137.417C46.863,136.982 49.828,136.187 52.738,134.855C55.651,133.537 58.532,131.762 61.196,129.574C63.849,127.374 66.268,124.764 68.362,121.895L69.147,120.815L69.874,119.698C70.372,118.958 70.832,118.196 71.263,117.418C71.712,116.66 72.134,115.851 72.541,115.021L73.155,113.791L73.657,112.658C75.097,109.446 76.26,106.111 77.076,102.69C77.884,99.273 78.326,95.779 78.271,92.33C78.217,88.887 77.645,85.477 76.445,82.38" fill="rgb(27,66,95)" fill-rule="nonzero"></path></g></svg>